<svg width="196" height="56" viewBox="0 0 196 56" fill="none" xmlns="http://www.w3.org/2000/svg">
<path fill-rule="evenodd" clip-rule="evenodd" d="M19.6121 15.1174C17.6361 14.2989 15.4983 13.9459 13.3641 14.0858C11.2298 14.2257 9.15635 14.8547 7.30406 15.9241L5.43518 17.0031L3.27719 13.2653L5.14607 12.1863C7.57169 10.7859 10.2869 9.96226 13.0818 9.77909C15.8766 9.5959 18.6761 10.0581 21.2638 11.1299C23.8514 12.2018 26.1578 13.8545 28.0046 15.9603C29.8512 18.0661 31.1888 20.5685 31.9139 23.2739C32.6386 25.9793 32.7316 28.8152 32.1851 31.5622C31.6386 34.3093 30.4677 36.8938 28.7625 39.1159C27.0574 41.3379 24.8642 43.138 22.3522 44.3767C19.8402 45.6154 16.6001 46.2598 14.276 46.2598C11.9519 46.2598 10.5949 45.9112 8.81276 45.1732C7.08073 44.4557 5.50699 43.4043 4.18132 42.0786C2.85568 40.7529 1.80415 39.1789 1.0867 37.4469C0.369282 35.715 0 33.8586 0 31.9839C0 30.1091 0.369282 28.2527 1.0867 26.5207C1.80415 24.7887 2.85568 23.2149 4.18132 21.8893C5.50699 20.5636 7.08073 19.5121 8.81276 18.7946C10.5448 18.0772 12.4012 17.7079 14.2759 17.7079C16.1507 17.7079 18.0071 18.0772 19.7391 18.7946C21.4711 19.5121 23.0449 20.5636 24.3705 21.8893C25.6962 23.2149 26.7476 24.7887 27.4651 26.5207C27.7739 27.2657 28.0179 28.0338 28.1962 28.8164C28.2831 27.3307 28.1321 25.8364 27.745 24.3909C27.1912 22.325 26.1699 20.4141 24.7596 18.806C23.3494 17.198 21.5882 15.9359 19.6121 15.1174ZM5.65639 36.9741C5.90117 32.3343 9.741 28.6474 14.4419 28.6474C18.9612 28.6474 22.6846 32.0548 23.1831 36.4406C23.2888 36.2294 23.3871 36.0142 23.4777 35.7954C23.9783 34.587 24.2359 33.2918 24.2359 31.9839C24.2359 30.6759 23.9783 29.3808 23.4777 28.1724C22.9772 26.964 22.2436 25.866 21.3187 24.9411C20.3938 24.0162 19.2958 23.2826 18.0874 22.7821C16.8791 22.2816 15.5839 22.0239 14.2759 22.0239C12.968 22.0239 11.6728 22.2816 10.4644 22.7821C9.25605 23.2826 8.15806 24.0162 7.23318 24.9411C6.30833 25.866 5.57468 26.964 5.07413 28.1724C4.57361 29.3808 4.31598 30.6759 4.31598 31.9839C4.31598 33.2918 4.57361 34.587 5.07413 35.7954C5.24242 36.2016 5.437 36.5953 5.65639 36.9741ZM18.9239 37.4452C18.9239 39.9206 16.9173 41.9272 14.4419 41.9272C11.9666 41.9272 9.95995 39.9206 9.95995 37.4452C9.95995 34.97 11.9666 32.9633 14.4419 32.9633C16.9173 32.9633 18.9239 34.97 18.9239 37.4452Z" fill="#7C3AED"/>
<path d="M55.188 41.2599C53.3808 41.2599 51.7469 40.9505 50.2862 40.3316C48.8504 39.7127 47.7116 38.8214 46.8698 37.6579C46.0281 36.4943 45.5949 35.1203 45.5701 33.5359H51.1403C51.2146 34.6005 51.5859 35.4422 52.2544 36.0611C52.9475 36.68 53.8883 36.9895 55.0766 36.9895C56.2897 36.9895 57.2428 36.7048 57.936 36.1354C58.6291 35.5412 58.9757 34.7738 58.9757 33.833C58.9757 33.0656 58.7406 32.4343 58.2702 31.9391C57.7998 31.444 57.2057 31.0603 56.4877 30.788C55.7945 30.4909 54.829 30.1691 53.5912 29.8225C51.9078 29.3273 50.5338 28.8446 49.4693 28.3742C48.4295 27.8791 47.5259 27.1488 46.7584 26.1833C46.0158 25.193 45.6444 23.8809 45.6444 22.247C45.6444 20.7121 46.0281 19.3753 46.7956 18.2365C47.563 17.0977 48.6399 16.2312 50.0263 15.637C51.4127 15.0181 52.9971 14.7087 54.7795 14.7087C57.4532 14.7087 59.6194 15.3647 61.2781 16.6768C62.9615 17.9641 63.8899 19.7714 64.0632 22.0985H58.3444C58.2949 21.2072 57.9112 20.4769 57.1933 19.9075C56.5001 19.3134 55.5717 19.0163 54.4082 19.0163C53.3932 19.0163 52.5762 19.2762 51.9573 19.7961C51.3631 20.316 51.0661 21.0711 51.0661 22.0613C51.0661 22.7545 51.2889 23.3363 51.7345 23.8067C52.2049 24.2523 52.7743 24.6236 53.4427 24.9207C54.1359 25.193 55.1014 25.5149 56.3392 25.8862C58.0226 26.3813 59.3966 26.8765 60.4611 27.3716C61.5257 27.8667 62.4416 28.6094 63.2091 29.5997C63.9765 30.5899 64.3603 31.8896 64.3603 33.4988C64.3603 34.8852 64.0013 36.1725 63.2834 37.3608C62.5654 38.5491 61.5133 39.5022 60.1269 40.2202C58.7406 40.9134 57.0943 41.2599 55.188 41.2599ZM67.5306 30.6394C67.5306 28.5599 67.9391 26.7155 68.7561 25.1064C69.5978 23.4972 70.7242 22.2594 72.1353 21.3929C73.5712 20.5264 75.168 20.0932 76.9257 20.0932C78.4606 20.0932 79.7974 20.4027 80.9362 21.0216C82.0998 21.6405 83.0281 22.4203 83.7213 23.361V20.4274H88.9573V41H83.7213V37.9921C83.0529 38.9576 82.1245 39.7622 80.9362 40.4058C79.7727 41.0248 78.4235 41.3342 76.8886 41.3342C75.1556 41.3342 73.5712 40.8886 72.1353 39.9974C70.7242 39.1061 69.5978 37.8559 68.7561 36.2468C67.9391 34.6128 67.5306 32.7437 67.5306 30.6394ZM83.7213 30.7137C83.7213 29.4511 83.4738 28.3742 82.9786 27.483C82.4835 26.567 81.8151 25.8738 80.9734 25.4035C80.1316 24.9083 79.228 24.6608 78.2625 24.6608C77.297 24.6608 76.4058 24.8959 75.5888 25.3663C74.7719 25.8367 74.1035 26.5299 73.5836 27.4459C73.0884 28.3371 72.8409 29.4016 72.8409 30.6394C72.8409 31.8773 73.0884 32.9665 73.5836 33.9073C74.1035 34.8233 74.7719 35.5288 75.5888 36.024C76.4306 36.5191 77.3218 36.7667 78.2625 36.7667C79.228 36.7667 80.1316 36.5315 80.9734 36.0611C81.8151 35.566 82.4835 34.8728 82.9786 33.9816C83.4738 33.0656 83.7213 31.9763 83.7213 30.7137ZM99.2337 23.3982C99.9022 22.4574 100.818 21.6776 101.982 21.0587C103.17 20.415 104.519 20.0932 106.029 20.0932C107.787 20.0932 109.371 20.5264 110.783 21.3929C112.218 22.2594 113.345 23.4972 114.162 25.1064C115.004 26.6908 115.424 28.5351 115.424 30.6394C115.424 32.7437 115.004 34.6128 114.162 36.2468C113.345 37.8559 112.218 39.1061 110.783 39.9974C109.371 40.8886 107.787 41.3342 106.029 41.3342C104.519 41.3342 103.182 41.0248 102.019 40.4058C100.88 39.7869 99.9517 39.0071 99.2337 38.0664V50.8035H94.0349V20.4274H99.2337V23.3982ZM110.114 30.6394C110.114 29.4016 109.854 28.3371 109.334 27.4459C108.839 26.5299 108.171 25.8367 107.329 25.3663C106.512 24.8959 105.621 24.6608 104.655 24.6608C103.715 24.6608 102.823 24.9083 101.982 25.4035C101.165 25.8738 100.496 26.567 99.9764 27.483C99.4813 28.399 99.2337 29.4759 99.2337 30.7137C99.2337 31.9515 99.4813 33.0284 99.9764 33.9444C100.496 34.8604 101.165 35.566 101.982 36.0611C102.823 36.5315 103.715 36.7667 104.655 36.7667C105.621 36.7667 106.512 36.5191 107.329 36.024C108.171 35.5288 108.839 34.8233 109.334 33.9073C109.854 32.9913 110.114 31.902 110.114 30.6394ZM121.839 17.9765C120.923 17.9765 120.155 17.6918 119.537 17.1224C118.942 16.5283 118.645 15.798 118.645 14.9315C118.645 14.065 118.942 13.3471 119.537 12.7777C120.155 12.1835 120.923 11.8864 121.839 11.8864C122.755 11.8864 123.51 12.1835 124.104 12.7777C124.723 13.3471 125.032 14.065 125.032 14.9315C125.032 15.798 124.723 16.5283 124.104 17.1224C123.51 17.6918 122.755 17.9765 121.839 17.9765ZM124.401 20.4274V41H119.202V20.4274H124.401ZM148.662 30.2681C148.662 31.0108 148.612 31.6792 148.513 32.2734H133.474C133.598 33.7587 134.118 34.9223 135.034 35.764C135.95 36.6057 137.076 37.0266 138.413 37.0266C140.344 37.0266 141.718 36.1973 142.535 34.5386H148.142C147.548 36.5191 146.409 38.153 144.726 39.4403C143.042 40.7029 140.975 41.3342 138.524 41.3342C136.544 41.3342 134.761 40.901 133.177 40.0345C131.617 39.1433 130.392 37.8931 129.5 36.2839C128.634 34.6747 128.201 32.818 128.201 30.7137C128.201 28.5847 128.634 26.7155 129.5 25.1064C130.367 23.4972 131.58 22.2594 133.14 21.3929C134.699 20.5264 136.494 20.0932 138.524 20.0932C140.48 20.0932 142.225 20.5141 143.76 21.3558C145.32 22.1975 146.521 23.3982 147.362 24.9578C148.229 26.4927 148.662 28.2628 148.662 30.2681ZM143.277 28.7827C143.253 27.4459 142.77 26.3813 141.829 25.5891C140.888 24.7722 139.737 24.3637 138.376 24.3637C137.088 24.3637 135.999 24.7598 135.108 25.552C134.241 26.3194 133.709 27.3963 133.511 28.7827H143.277ZM163.857 20.1303C166.308 20.1303 168.288 20.9102 169.799 22.4698C171.309 24.0047 172.064 26.1585 172.064 28.9312V41H166.865V29.6368C166.865 28.0029 166.456 26.7527 165.639 25.8862C164.822 24.995 163.708 24.5494 162.297 24.5494C160.861 24.5494 159.723 24.995 158.881 25.8862C158.064 26.7527 157.656 28.0029 157.656 29.6368V41H152.457V20.4274H157.656V22.9897C158.349 22.0985 159.228 21.4053 160.292 20.9102C161.381 20.3903 162.57 20.1303 163.857 20.1303ZM184.88 41.3342C183.197 41.3342 181.687 41.0371 180.35 40.443C179.013 39.8241 177.948 38.9947 177.156 37.955C176.389 36.9152 175.968 35.764 175.894 34.5014H181.13C181.229 35.2936 181.612 35.9497 182.281 36.4696C182.974 36.9895 183.828 37.2494 184.843 37.2494C185.833 37.2494 186.601 37.0514 187.145 36.6552C187.715 36.2591 187.999 35.7516 187.999 35.1327C187.999 34.4643 187.653 33.9692 186.96 33.6473C186.291 33.3008 185.214 32.9294 183.729 32.5333C182.194 32.162 180.931 31.7782 179.941 31.3821C178.976 30.986 178.134 30.3795 177.416 29.5625C176.723 28.7456 176.376 27.6439 176.376 26.2576C176.376 25.1188 176.698 24.079 177.342 23.1382C178.01 22.1975 178.951 21.4548 180.164 20.9102C181.402 20.3655 182.85 20.0932 184.509 20.0932C186.96 20.0932 188.915 20.7121 190.376 21.9499C191.837 23.163 192.641 24.8093 192.79 26.8888H187.814C187.739 26.0719 187.393 25.4282 186.774 24.9578C186.18 24.4627 185.375 24.2151 184.36 24.2151C183.42 24.2151 182.689 24.3884 182.169 24.735C181.674 25.0816 181.427 25.5644 181.427 26.1833C181.427 26.8765 181.773 27.4087 182.466 27.7801C183.16 28.1267 184.236 28.4856 185.697 28.857C187.182 29.2283 188.408 29.612 189.373 30.0081C190.339 30.4043 191.168 31.0232 191.861 31.8649C192.579 32.6818 192.951 33.7711 192.975 35.1327C192.975 36.321 192.641 37.3856 191.973 38.3263C191.329 39.2671 190.388 40.0097 189.151 40.5544C187.938 41.0743 186.514 41.3342 184.88 41.3342Z" fill="#1E1E1E"/>
</svg>
